<?xml version="1.0" encoding="UTF-8"?>
<svg width="48px" height="48px" viewBox="0 0 48 48" version="1.1" xmlns="http://www.w3.org/2000/svg" xmlns:xlink="http://www.w3.org/1999/xlink">
    <title>icons/Office 365</title>
    <g id="Widgets" stroke="none" stroke-width="1" fill="none" fill-rule="evenodd">
        <g id="Etisalat-Demo-Widgets" transform="translate(-1383.000000, -324.000000)">
            <g id="Products&amp;Services-Copy-4" transform="translate(821.000000, 132.000000)">
                <g id="Product-Card" transform="translate(335.000000, 132.000000)">
                    <g id="Group-2" transform="translate(227.000000, 60.000000)">
                        <rect id="Rectangle" fill="#B4019E" x="0" y="0" width="48" height="48" rx="4.66666667"></rect>
                        <path d="M24.044448,9.911124 C25.3336844,9.911124 26.5772033,10.0779933 27.7750045,10.4117318 C28.9728057,10.7454703 30.092887,11.2163616 31.1352484,11.8244057 C32.1776098,12.4324499 33.1262501,13.1639315 33.9811693,14.0188507 C34.8360885,14.8737699 35.5675701,15.8224102 36.1756143,16.8647716 C36.7836584,17.907133 37.2545497,19.0272143 37.5882882,20.2250155 C37.9220267,21.4228167 38.088896,22.6663356 38.088896,23.955572 C38.088896,25.2448084 37.9220267,26.4883273 37.5882882,27.6861285 C37.2545497,28.8839297 36.7836584,30.004011 36.1756143,31.0463724 C35.5675701,32.0887338 34.8360885,33.0373741 33.9811693,33.8922933 C33.1262501,34.7472125 32.1776098,35.4786941 31.1352484,36.0867383 C30.092887,36.6947824 28.9728057,37.1656737 27.7750045,37.4994122 C26.5772033,37.8331507 25.3336844,38.00002 24.044448,38.00002 C22.7552116,38.00002 21.5116927,37.8331507 20.3138915,37.4994122 C19.1160903,37.1656737 17.996009,36.6947824 16.9536476,36.0867383 C15.9112862,35.4786941 14.9626459,34.7472125 14.1077267,33.8922933 C13.2528075,33.0373741 12.5213259,32.0887338 11.9132817,31.0463724 C11.3052376,30.004011 10.8343463,28.8862156 10.5006078,27.6929861 C10.1668693,26.4997567 10,25.253952 10,23.955572 C10,22.6663356 10.1668693,21.4228167 10.5006078,20.2250155 C10.8343463,19.0272143 11.3052376,17.907133 11.9132817,16.8647716 C12.5213259,15.8224102 13.2528075,14.8737699 14.1077267,14.0188507 C14.9626459,13.1639315 15.9112862,12.4324499 16.9536476,11.8244057 C17.996009,11.2163616 19.1138044,10.7454703 20.3070339,10.4117318 C21.5002633,10.0779933 22.746068,9.911124 24.044448,9.911124 Z M35.1401105,18.688904 C34.7926567,17.9482788 34.3720548,17.2510853 33.8783047,16.5973236 C33.3845545,15.9435619 32.8359433,15.3469471 32.2324709,14.8074794 C31.6289985,14.2680117 30.9752368,13.7879768 30.2711857,13.3673749 C29.5671346,12.9467729 28.8310812,12.6038909 28.0630254,12.3387288 C28.3921922,12.7959048 28.6893566,13.2805114 28.9545187,13.7925486 C29.2196808,14.3045858 29.4551265,14.8326241 29.6608557,15.3766636 C29.8665849,15.9207031 30.0425977,16.4716002 30.188894,17.029355 C30.3351903,17.5871097 30.4631996,18.1402927 30.5729219,18.688904 L35.1401105,18.688904 Z M36.33334,23.955572 C36.33334,22.7394837 36.1641849,21.5691131 35.8258746,20.44446 L30.8472275,20.44446 C30.9203757,21.0296453 30.9752368,21.6125448 31.0118109,22.1931584 C31.048385,22.7737719 31.066672,23.3612431 31.066672,23.955572 C31.066672,24.5499009 31.048385,25.1373721 31.0118109,25.7179856 C30.9752368,26.2985992 30.9203757,26.8814987 30.8472275,27.466684 L35.8258746,27.466684 C36.1641849,26.3420309 36.33334,25.1716603 36.33334,23.955572 Z M24.044448,36.244464 C24.4924805,36.244464 24.9107966,36.1210265 25.2993962,35.8741514 C25.6879959,35.6272763 26.0468791,35.3026814 26.3760458,34.9003664 C26.7052126,34.4980515 27.0000911,34.0431614 27.2606815,33.535696 C27.5212718,33.0282305 27.7521457,32.5139075 27.9533032,31.9927268 C28.1544606,31.4715461 28.3236157,30.9686525 28.4607686,30.4840459 C28.5979214,29.9994393 28.7030719,29.5788373 28.77622,29.22224 L19.312676,29.22224 C19.3858241,29.5788373 19.4909746,29.9994393 19.6281274,30.4840459 C19.7652802,30.9686525 19.9344354,31.4715461 20.1355928,31.9927268 C20.3367503,32.5139075 20.5676242,33.0282305 20.8282145,33.535696 C21.0888049,34.0431614 21.3836834,34.4980515 21.7128502,34.9003664 C22.0420169,35.3026814 22.4009001,35.6272763 22.7894998,35.8741514 C23.1780994,36.1210265 23.5964155,36.244464 24.044448,36.244464 Z M29.0779562,27.466684 C29.1511044,26.8814987 29.2082514,26.2985992 29.2493972,25.7179856 C29.2905431,25.1373721 29.311116,24.5499009 29.311116,23.955572 C29.311116,23.3612431 29.2905431,22.7737719 29.2493972,22.1931584 C29.2082514,21.6125448 29.1511044,21.0296453 29.0779562,20.44446 L19.0109398,20.44446 C18.9377916,21.0296453 18.8806446,21.6125448 18.8394988,22.1931584 C18.7983529,22.7737719 18.77778,23.3612431 18.77778,23.955572 C18.77778,24.5499009 18.7983529,25.1373721 18.8394988,25.7179856 C18.8806446,26.2985992 18.9377916,26.8814987 19.0109398,27.466684 L29.0779562,27.466684 Z M11.755556,23.955572 C11.755556,25.1716603 11.9247111,26.3420309 12.2630214,27.466684 L17.2416685,27.466684 C17.1685203,26.8814987 17.1136592,26.2985992 17.0770851,25.7179856 C17.040511,25.1373721 17.022224,24.5499009 17.022224,23.955572 C17.022224,23.3612431 17.040511,22.7737719 17.0770851,22.1931584 C17.1136592,21.6125448 17.1685203,21.0296453 17.2416685,20.44446 L12.2630214,20.44446 C11.9247111,21.5691131 11.755556,22.7394837 11.755556,23.955572 Z M24.044448,11.66668 C23.5964155,11.66668 23.1780994,11.7901175 22.7894998,12.0369926 C22.4009001,12.2838677 22.0420169,12.6084626 21.7128502,13.0107776 C21.3836834,13.4130925 21.0888049,13.8679826 20.8282145,14.375448 C20.5676242,14.8829135 20.3367503,15.3972365 20.1355928,15.9184172 C19.9344354,16.4395979 19.7652802,16.9424915 19.6281274,17.4270981 C19.4909746,17.9117047 19.3858241,18.3323067 19.312676,18.688904 L28.77622,18.688904 C28.7030719,18.3323067 28.5979214,17.9117047 28.4607686,17.4270981 C28.3236157,16.9424915 28.1544606,16.4395979 27.9533032,15.9184172 C27.7521457,15.3972365 27.5212718,14.8829135 27.2606815,14.375448 C27.0000911,13.8679826 26.7052126,13.4130925 26.3760458,13.0107776 C26.0468791,12.6084626 25.6879959,12.2838677 25.2993962,12.0369926 C24.9107966,11.7901175 24.4924805,11.66668 24.044448,11.66668 Z M20.0258706,12.3387288 C19.2578148,12.6038909 18.5217614,12.9467729 17.8177103,13.3673749 C17.1136592,13.7879768 16.4598975,14.2680117 15.8564251,14.8074794 C15.2529527,15.3469471 14.7043415,15.9435619 14.2105913,16.5973236 C13.7168412,17.2510853 13.2962393,17.9482788 12.9487855,18.688904 L17.5159741,18.688904 C17.6256964,18.1402927 17.7537057,17.5871097 17.900002,17.029355 C18.0462983,16.4716002 18.2223111,15.9207031 18.4280403,15.3766636 C18.6337695,14.8326241 18.8692152,14.3045858 19.1343773,13.7925486 C19.3995394,13.2805114 19.6967038,12.7959048 20.0258706,12.3387288 Z M12.9487855,29.22224 C13.2962393,29.9628652 13.7168412,30.6600587 14.2105913,31.3138204 C14.7043415,31.9675821 15.2529527,32.5641969 15.8564251,33.1036646 C16.4598975,33.6431323 17.1136592,34.1231672 17.8177103,34.5437691 C18.5217614,34.9643711 19.2578148,35.3072531 20.0258706,35.5724152 C19.6967038,35.1152392 19.3995394,34.6306326 19.1343773,34.1185954 C18.8692152,33.6065582 18.6337695,33.0785199 18.4280403,32.5344804 C18.2223111,31.9904409 18.0462983,31.4395438 17.900002,30.881789 C17.7537057,30.3240343 17.6256964,29.7708512 17.5159741,29.22224 L12.9487855,29.22224 Z M28.0630254,35.5724152 C28.8310812,35.3072531 29.5671346,34.9643711 30.2711857,34.5437691 C30.9752368,34.1231672 31.6289985,33.6431323 32.2324709,33.1036646 C32.8359433,32.5641969 33.3845545,31.9675821 33.8783047,31.3138204 C34.3720548,30.6600587 34.7926567,29.9628652 35.1401105,29.22224 L30.5729219,29.22224 C30.4631996,29.7708512 30.3351903,30.3240343 30.188894,30.881789 C30.0425977,31.4395438 29.8665849,31.9904409 29.6608557,32.5344804 C29.4551265,33.0785199 29.2196808,33.6065582 28.9545187,34.1185954 C28.6893566,34.6306326 28.3921922,35.1152392 28.0630254,35.5724152 Z" id="Shape" fill="#FFFFFF" fill-rule="nonzero"></path>
                    </g>
                </g>
            </g>
        </g>
    </g>
</svg>